<svg xmlns="http://www.w3.org/2000/svg" xmlns:xlink="http://www.w3.org/1999/xlink" viewBox="0 0 694.02 694.02"><defs><style>.cls-1,.cls-17,.cls-18,.cls-2,.cls-20,.cls-3,.cls-4,.cls-5,.cls-6,.cls-7,.cls-8{fill:none;stroke-miterlimit:10;}.cls-1,.cls-2,.cls-3,.cls-4,.cls-5,.cls-6,.cls-7,.cls-8{stroke-width:3px;}.cls-1{stroke:url(#linear-gradient);}.cls-2{stroke:url(#linear-gradient-2);}.cls-3{stroke:url(#linear-gradient-3);}.cls-4{stroke:url(#linear-gradient-4);}.cls-5{stroke:url(#linear-gradient-5);}.cls-6{stroke:url(#linear-gradient-6);}.cls-7{stroke:url(#linear-gradient-7);}.cls-8{stroke:url(#linear-gradient-8);}.cls-9{fill:url(#linear-gradient-9);}.cls-10,.cls-12{fill:#3c0443;}.cls-11{fill:#fff;}.cls-12{font-size:102.4px;font-family:Excluded;}.cls-13{fill:url(#linear-gradient-10);}.cls-14{fill:url(#linear-gradient-11);}.cls-15{fill:url(#linear-gradient-12);}.cls-16{fill:url(#linear-gradient-13);}.cls-17,.cls-18,.cls-20{stroke:#3c0443;}.cls-17{stroke-width:6px;}.cls-18{stroke-width:7px;}.cls-19{fill:#bd5f19;}.cls-20{stroke-width:5px;}</style><linearGradient id="linear-gradient" x1="166.74" y1="335.34" x2="515.78" y2="335.34" gradientUnits="userSpaceOnUse"><stop offset="0" stop-color="#fcb934"/><stop offset="0.48" stop-color="#bd5f19"/><stop offset="1" stop-color="#fcb934"/></linearGradient><linearGradient id="linear-gradient-2" x1="193.7" y1="323.98" x2="500.76" y2="323.98" xlink:href="#linear-gradient"/><linearGradient id="linear-gradient-3" x1="216.06" y1="347.64" x2="370.35" y2="347.64" xlink:href="#linear-gradient"/><linearGradient id="linear-gradient-4" x1="222.92" y1="424.4" x2="404.85" y2="424.4" xlink:href="#linear-gradient"/><linearGradient id="linear-gradient-5" x1="342.96" y1="318.85" x2="439.06" y2="318.85" xlink:href="#linear-gradient"/><linearGradient id="linear-gradient-6" x1="186.41" y1="326.1" x2="211.62" y2="326.1" xlink:href="#linear-gradient"/><linearGradient id="linear-gradient-7" x1="192.75" y1="408.95" x2="250.41" y2="408.95" xlink:href="#linear-gradient"/><linearGradient id="linear-gradient-8" x1="281.31" y1="433.85" x2="323.62" y2="433.85" xlink:href="#linear-gradient"/><linearGradient id="linear-gradient-9" x1="225.13" y1="501.32" x2="460.22" y2="501.32" gradientUnits="userSpaceOnUse"><stop offset="0" stop-color="#fcb934"/><stop offset="0.47" stop-color="#bd5f19"/><stop offset="1" stop-color="#fcb934"/></linearGradient><linearGradient id="linear-gradient-10" x1="318.28" y1="219.09" x2="366.27" y2="219.09" xlink:href="#linear-gradient-9"/><linearGradient id="linear-gradient-11" x1="336.81" y1="231.99" x2="343.26" y2="231.99" xlink:href="#linear-gradient-9"/><linearGradient id="linear-gradient-12" x1="336.71" y1="212.63" x2="343.26" y2="212.63" xlink:href="#linear-gradient-9"/><linearGradient id="linear-gradient-13" x1="336.7" y1="222.21" x2="343.26" y2="222.21" xlink:href="#linear-gradient-9"/></defs><title>Asset 18</title><g id="Layer_2" data-name="Layer 2"><g id="Layer_1-2" data-name="Layer 1"><path class="cls-1" d="M341.43,162.33c95.65,0,173.49,78.07,172.84,174.23-.64,95.09-78.35,172.4-174.2,171.79-95-.62-172.52-78.21-171.82-174.31C168.94,238.87,246.5,162.12,341.43,162.33ZM301.3,473.62c51.75,16.16,132.83,2.57,176.35-70.9A155,155,0,0,0,420.76,189c-36.86-21.16-76.28-25.92-117.38-15.32C276,180.77,252.6,194.82,232.51,215a106.11,106.11,0,0,0,52.31,1.13c25.93-6,46.77-19.85,62.9-41a1.39,1.39,0,0,1-.22.6A105.45,105.45,0,0,1,306,214.27c-25.21,12.93-51.6,15.66-79,8.2a1.5,1.5,0,0,0-1.86.57c-2.47,3.21-5.09,6.31-7.48,9.57A154.15,154.15,0,0,0,195.4,276.2c-.26.78-.4,1.37.48,1.94,4.55,2.94,9.05,5.95,13.59,8.9,1.12.72,2.33,1.32,3.6,2,.25-.87.44-1.51.62-2.17a288.38,288.38,0,0,1,22.53-56.55c.2-.39.66-.88,1-.9a21.06,21.06,0,0,1,8,1.32,258,258,0,0,0-13.94,30.5,212.26,212.26,0,0,0-9.43,32.19,141.35,141.35,0,0,0,35,10.84c0-2.85.06-5.53,0-8.2a405.26,405.26,0,0,1,3.22-63c.12-.89.45-1.08,1.27-1.14,2.72-.19,5.44-.45,8.16-.73,1.56-.16,3.11-.41,4.82-.63a384.78,384.78,0,0,0-5.14,75.07C279,308.8,320,303.5,328.67,298c-11.79-24.85-23.14-49.9-33.62-75.26l8.94-6.7L341.52,293a141.73,141.73,0,0,0,43.35-31.3A326.62,326.62,0,0,0,319,209.84c1.89-1.51,3.73-2.93,5.51-4.41s3.51-3,5.32-4.57a336.77,336.77,0,0,1,62.44,52.27,149.33,149.33,0,0,0,16.06-24.61,137.37,137.37,0,0,1-14.14,26.67,333.81,333.81,0,0,1,48.44,68.15,187.71,187.71,0,0,0,20.06-31.11,4.52,4.52,0,0,1-.34,1.17,176.84,176.84,0,0,1-17.22,32.19,1.94,1.94,0,0,0-.14,2.31,336.42,336.42,0,0,1,21.8,52.78c.43,1.35.82,2.71,1.23,4.06a507.56,507.56,0,0,0-27.83-52.12,177,177,0,0,1-58.34,50.19c8.06,19.35,15.81,38.66,22.17,58.88,4.83-3,9.6-5.78,14.11-8.89s8.95-6.43,13.16-10,8.33-7.36,12.24-11.3,7.35-8,11-12.07a163.08,163.08,0,0,1-48.67,47.9C374,467.67,339,475.82,301.3,473.62ZM269.79,323.05c1.62,10.51,3,20.83,4.83,31.09a238.47,238.47,0,0,0,8.76,33.63,1.48,1.48,0,0,0,1.52,1.2c4.63.29,9.25.81,13.89,1a176.44,176.44,0,0,0,62-9.27c2.53-.85,5-1.81,7.43-2.68q-18-36.08-35.95-71.83-56.28,22.91-112.59-.31a11.18,11.18,0,0,0-.27,1.24c-.47,4.3-1.06,8.59-1.37,12.9a198.08,198.08,0,0,0,2.41,48,2.19,2.19,0,0,0,1.28,1.74,179.71,179.71,0,0,0,42.76,15.79c3.13.71,6.28,1.3,9.74,2a264,264,0,0,1-15.5-65.42Zm-44.67,65.17c.13.51.23.94.36,1.37a249.92,249.92,0,0,0,24,55.89,5.16,5.16,0,0,0,2.66,2.34,179.5,179.5,0,0,0,87.48,13.25,168.9,168.9,0,0,0,54.18-14.53c3-1.37,6-2.88,9-4.33l-29.57-54.92Q299.38,419.9,225.12,388.22ZM344.9,300l33.39,73.73c.25-.11.58-.24.9-.39a177.39,177.39,0,0,0,57.61-42.91,2,2,0,0,0,.2-3A403.62,403.62,0,0,0,391,268c-1.14-1.22-2.3-2.42-3.54-3.72A142.54,142.54,0,0,1,344.9,300ZM207.78,361.59c0-.46,0-.62,0-.79-.46-5.94-1.16-11.87-1.34-17.82a175.84,175.84,0,0,1,3.67-40.54c.19-.92-.1-1.33-.89-1.82-5.62-3.45-11.19-7-16.77-10.47-.18-.11-.37-.19-.63-.32a9.22,9.22,0,0,0-.29,1c-.75,4.29-1.6,8.58-2.2,12.9a152.19,152.19,0,0,0,.38,43.52,2.82,2.82,0,0,0,1,1.67c3.57,2.82,7.16,5.61,10.81,8.32C203.43,358.74,205.54,360.06,207.78,361.59Zm38,83.14a1.12,1.12,0,0,0-.13-.24c-.28-.36-.57-.71-.86-1.06-14.92-18.13-26.14-38.23-32.56-60.9a3.26,3.26,0,0,0-1.37-1.68c-4.14-2.64-8.33-5.2-12.49-7.8-1-.61-1.93-1.28-2.89-1.93A150.93,150.93,0,0,0,245.77,444.73Z"/><path class="cls-2" d="M301.3,473.62c37.69,2.2,72.7-5.95,104.61-26.25a163.08,163.08,0,0,0,48.67-47.9c-3.67,4-7.19,8.21-11,12.07s-8,7.74-12.24,11.3-8.63,6.84-13.16,10-9.28,5.87-14.11,8.89c-6.36-20.22-14.11-39.53-22.17-58.88a177,177,0,0,0,58.34-50.19,507.56,507.56,0,0,1,27.83,52.12c-.41-1.35-.8-2.71-1.23-4.06A336.42,336.42,0,0,0,445,327.9a1.94,1.94,0,0,1,.14-2.31,176.84,176.84,0,0,0,17.22-32.19,4.52,4.52,0,0,0,.34-1.17,187.71,187.71,0,0,1-20.06,31.11,333.81,333.81,0,0,0-48.44-68.15,137.37,137.37,0,0,0,14.14-26.67,149.33,149.33,0,0,1-16.06,24.61,336.77,336.77,0,0,0-62.44-52.27c-1.81,1.56-3.54,3.1-5.32,4.57s-3.62,2.9-5.51,4.41a326.62,326.62,0,0,1,65.84,51.84A141.73,141.73,0,0,1,341.52,293L304,216.06l-8.94,6.7c10.48,25.36,21.83,50.41,33.62,75.26C320,303.5,279,308.8,269.2,305.71a384.78,384.78,0,0,1,5.14-75.07c-1.71.22-3.26.47-4.82.63-2.72.28-5.44.54-8.16.73-.82.06-1.15.25-1.27,1.14a405.26,405.26,0,0,0-3.22,63c.07,2.67,0,5.35,0,8.2a141.35,141.35,0,0,1-35-10.84,212.26,212.26,0,0,1,9.43-32.19,258,258,0,0,1,13.94-30.5,21.06,21.06,0,0,0-8-1.32c-.36,0-.82.51-1,.9a288.38,288.38,0,0,0-22.53,56.55c-.18.66-.37,1.3-.62,2.17-1.27-.71-2.48-1.31-3.6-2-4.54-3-9-6-13.59-8.9-.88-.57-.74-1.16-.48-1.94a154.15,154.15,0,0,1,22.23-43.59c2.39-3.26,5-6.36,7.48-9.57a1.5,1.5,0,0,1,1.86-.57c27.38,7.46,53.77,4.73,79-8.2a105.45,105.45,0,0,0,41.55-38.53,1.39,1.39,0,0,0,.22-.6c-16.13,21.13-37,35-62.9,41A106.11,106.11,0,0,1,232.51,215c20.09-20.17,43.53-34.22,70.87-41.28,41.1-10.6,80.52-5.84,117.38,15.32a155,155,0,0,1,56.89,213.69C434.13,476.19,353.05,489.78,301.3,473.62Z"/><path class="cls-3" d="M269.79,323.05l-11-.93a264,264,0,0,0,15.5,65.42c-3.46-.71-6.61-1.3-9.74-2a179.71,179.71,0,0,1-42.76-15.79,2.19,2.19,0,0,1-1.28-1.74,198.08,198.08,0,0,1-2.41-48c.31-4.31.9-8.6,1.37-12.9a11.18,11.18,0,0,1,.27-1.24q56.31,23.3,112.59.31Q350.24,342,368.25,378c-2.41.87-4.9,1.83-7.43,2.68a176.44,176.44,0,0,1-62,9.27c-4.64-.15-9.26-.67-13.89-1a1.48,1.48,0,0,1-1.52-1.2,238.47,238.47,0,0,1-8.76-33.63C272.82,343.88,271.41,333.56,269.79,323.05Z"/><path class="cls-4" d="M225.12,388.22q74.4,31.81,148.1-.93l29.57,54.92c-3,1.45-5.94,3-9,4.33a168.9,168.9,0,0,1-54.18,14.53,179.5,179.5,0,0,1-87.48-13.25,5.16,5.16,0,0,1-2.66-2.34,249.92,249.92,0,0,1-24-55.89C225.35,389.16,225.25,388.73,225.12,388.22Zm97.32,71.13c-.3-.4-.62-.78-.91-1.18-4.67-6.5-9.52-12.87-13.94-19.53a198.84,198.84,0,0,1-15.33-28.27c-.18-.4-.58-1-.93-1-2.41-.22-4.84-.33-7.47-.48C293.84,428.09,306.42,445,322.44,459.35Z"/><path class="cls-5" d="M344.9,300a142.54,142.54,0,0,0,42.56-35.64c1.24,1.3,2.4,2.5,3.54,3.72a403.62,403.62,0,0,1,46,59.37,2,2,0,0,1-.2,3,177.39,177.39,0,0,1-57.61,42.91c-.32.15-.65.28-.9.39Z"/><path class="cls-6" d="M207.78,361.59c-2.24-1.53-4.35-2.85-6.34-4.34-3.65-2.71-7.24-5.5-10.81-8.32a2.82,2.82,0,0,1-1-1.67,152.19,152.19,0,0,1-.38-43.52c.6-4.32,1.45-8.61,2.2-12.9a9.22,9.22,0,0,1,.29-1c.26.13.45.21.63.32,5.58,3.5,11.15,7,16.77,10.47.79.49,1.08.9.89,1.82A175.84,175.84,0,0,0,206.4,343c.18,5.95.88,11.88,1.34,17.82C207.75,361,207.76,361.13,207.78,361.59Z"/><path class="cls-7" d="M245.77,444.73a150.93,150.93,0,0,1-50.3-73.61c1,.65,1.91,1.32,2.89,1.93,4.16,2.6,8.35,5.16,12.49,7.8a3.26,3.26,0,0,1,1.37,1.68c6.42,22.67,17.64,42.77,32.56,60.9.29.35.58.7.86,1.06A1.12,1.12,0,0,1,245.77,444.73Z"/><path class="cls-8" d="M322.44,459.35c-16-14.31-28.6-31.26-38.58-50.45,2.63.15,5.06.26,7.47.48.35,0,.75.59.93,1a198.84,198.84,0,0,0,15.33,28.27c4.42,6.66,9.27,13,13.94,19.53C321.82,458.57,322.14,459,322.44,459.35Z"/><path class="cls-9" d="M460.22,466.4v19.5l-.19.18c-65.76,66.84-168.89,66.71-234.9.58V466.4Z"/><path class="cls-10" d="M565.66,349.39c-7.43.47-14.72,4-22.1,4.15-33.37.48-66.76-.16-100.13.42-6.36.11-11.84-.32-15.83-3.45a9,9,0,0,1-1.49.13l-.43,0-.37,0c-.21,0-.41,0-.61,0l-.39,0c-.32,0-.63,0-.94-.05s-.52.05-.8.05a9.48,9.48,0,0,1-1.54-.14,10.13,10.13,0,0,1-1.6.14c-.34,0-.68,0-1-.05s-.48.05-.73.05a9.93,9.93,0,0,1-1.25-.09l0,0h.18l0,2.06H367c0-7.26.64-13.57-.28-19.65-.43-2.82-3.79-7.29-6-7.4-14.17-.67-28.4-.34-43.62-.34v27.4H268.79v-1.21a9.26,9.26,0,0,1-2.16.26,4.2,4.2,0,0,1-.51,0,7.4,7.4,0,0,1-.83,0c-.19,0-.36,0-.54,0a9.74,9.74,0,0,1-1.66.16,9.31,9.31,0,0,1-2.37-.31,5.55,5.55,0,0,1-.73-.17h-.17a9,9,0,0,1-1.4-.11,7.09,7.09,0,0,1-.81,0,8.73,8.73,0,0,1-3.47-.67c-4.15,1.47-8.31,2.74-12.49,2.83-33.85.65-67.72.56-101.58.08-8.24-.12-16.45-2.71-27.25-4.61-.81.72-3.85,3.44-9.38,8.41H578c.37-1.39.73-2.78,1.1-4.17C574.6,351.81,570,349.12,565.66,349.39Z"/><path class="cls-10" d="M305,256.4c-6.21,0-11.54,1.51-14.36-.5-2.05-1.46-2.48-9.19-.56-11.2,2.35-2.48,7.9-1.93,13.38-2.93V226.72c-5.51-1.28-10.65-1.36-14.2-3.79-1.63-1.11-1.49-8.71.3-10,3.17-2.34,8.23-2.12,13-3.08V194.32c-5.08-.37-10.05.43-13.58-1.46-1.88-1-3-8.16-1.42-9.9,2.61-2.93,7.57-3.77,13.79-6.45-.79,2.33-.22,1.45-.24.59-.41-24.67.74-27.07,25.55-29.4,13.69-1.29,27.78.72,41.6,2.11,11.72,1.18,18.64,7.08,15.7,20.3a18,18,0,0,0-.09,5.85c5.79,2.85,10.81,4,13.56,7.19,1.49,1.71.31,8.31-1.81,9.95-2.64,2.06-7.48,1.28-13.34,2-.19,3.81-.5,9.87-.72,14.39,5.32,1.28,10.78,1.22,13.9,3.89,1.76,1.5,1.07,8.85-1.08,11.11s-7.47,1.22-13,1.81c-.21,4.34-.52,10.86-.72,15.16,5.92,1.49,11.3,1.66,14.82,4.31,1.47,1.1.25,8.69-2.07,11-1.88,1.91-7.24.39-13.07.39-.81,4.22-.87,12.07-3.81,18.62-9.81,21.83-30,10.85-45.61,12.44-17.31,1.75-23.68-5.88-25.15-24.32C305.56,261,305.16,258.21,305,256.4Z"/><path class="cls-10" d="M580.93,448.8c-7,7.65-10.63,13.74-18.41,6.28-2.36-2.26-7.27-2.58-11-2.58-67.21-.15-134.41-.11-202-.11,12.12,12.16,12.17,25.41.87,37.32-5.47,5.76-10.22,5.89-15.8.09-11.49-12-11.51-25.39.79-37.42-67.63,0-134.83-.13-202,.24-5.79,0-11.56,3.41-19.34,5.87l-10.72-9.69Z"/><path class="cls-10" d="M550.86,467.89c-15.29,0-30.58.46-45.82-.12-17.9-.69-31.76,4.93-44.82,18.13l-.19.18c-65.76,66.84-168.89,66.71-234.9.58-.79-.77-1.56-1.56-2.32-2.35-11.44-11.88-24-16.88-39.86-16.52-16.3.38-32.6.1-48.87-3.07h188a34.32,34.32,0,0,1-4.91,1.68c-18,4.75-36.42-5.08-49.51,6.55l-32.83-4.51c-9.86,19.91,8,25.94,17.89,32.75,36.33,25,76.43,37.64,121,27.3,27.87-6.47,51.18-22.36,73.74-39,4.59-3.38,6.56-10.29,9.73-15.57-5.38-1.63-10.79-4.62-16.16-4.57-7.64.07-15.27,2.37-22,3.56-16.05-9.57-33.27-2.64-48.81-6.5a31.39,31.39,0,0,1-4.64-1.51H550.75C550.79,465.89,550.82,466.89,550.86,467.89Z"/><path class="cls-10" d="M318.18,320.46V293.85H366v26.61Z"/><path class="cls-11" d="M287.18,337.27h3.21a6.38,6.38,0,0,1,2.4.48,6.76,6.76,0,0,1,2.41-.48h.22c-.05-1.45-.13-2.9-.2-4.34A28.6,28.6,0,0,1,287.18,337.27Z"/><text class="cls-12" transform="translate(112.63 431.5)">WMPOb</text><path class="cls-13" d="M330.25,250.45c6.1,3.73,15.31-.56,15.62-9.4.23-6.48.21-13,.22-19.46s-.11-13.26-.14-19.9q0-9,0-18c0-3.27,1.52-4.14,4.38-2.53,4.15,2.34,8.26,4.72,12.44,7a6,6,0,0,1,3.5,5.93c-.11,2.38,0,4.76,0,7.14s-1.52,3.1-3.51,2c-2.6-1.4-5.14-2.91-7.72-4.35-2.4-1.35-3.08-1-3.08,1.76,0,13.2,0,26.4,0,39.6a17.29,17.29,0,0,1-12.65,16.9,17,17,0,0,1-20.94-14.42,8.79,8.79,0,0,1,16.51-5,8.74,8.74,0,0,1-2.12,11C332,249.39,331.16,249.85,330.25,250.45Z"/><path class="cls-14" d="M339.87,235.28a3.24,3.24,0,0,1-3.06-3.5A3.11,3.11,0,0,1,340,228.7a3.28,3.28,0,0,1,3.24,3.36A3.33,3.33,0,0,1,339.87,235.28Z"/><path class="cls-15" d="M343.26,212.72a3.32,3.32,0,0,1-3.38,3.18,3.27,3.27,0,1,1,3.38-3.18Z"/><path class="cls-16" d="M339.94,225.43a3,3,0,0,1-3.24-3A3.79,3.79,0,0,1,340,219a3.36,3.36,0,0,1,3.31,3.29A3.09,3.09,0,0,1,339.94,225.43Z"/><circle class="cls-17" cx="347.01" cy="347.01" r="344.01"/><circle class="cls-18" cx="347.01" cy="359.26" r="267.99"/><path class="cls-19" d="M58.61,358.18,24.88,365l.39-7.68c15.46-2.35,22.32-3.43,26-3.63v-.05c-6.05-1.58-17.48-5.38-25.43-7.73l.33-6.47c6.48-1.39,19.57-4.1,25.72-4.88v-.05c-7.27-1.47-20-5.4-25.12-6.83l.35-7L60,331.37l-.38,7.46c-7.46,1.38-18.37,3.77-24.14,4.65v0c5.87,1.51,16.93,5.08,23.54,7.2Z"/><path class="cls-19" d="M50.6,285.85c9.12,1.75,15.92,8.72,13.89,19.36-2,10.28-10.47,14.23-19.85,12.44s-15.72-9.16-13.77-19.34C32.7,288.73,40.57,283.94,50.6,285.85Zm-4.71,24.46c6.4,1.22,11.77-.66,12.88-6.47,1.21-6.3-3.64-9.54-9.48-10.65-6.2-1.19-11.55.42-12.72,6.53C35.44,305.63,39.52,309.09,45.89,310.31Z"/><path class="cls-19" d="M58,273.12l12.73,4-2.12,6.72-31.8-10.05,4.41-14c2.19-6.94,7.19-9.46,12.1-7.91,4.27,1.35,5.84,4.4,6.07,7,1.07-1.39,3.46-3.25,9.16-1.45l1.57.49a26.28,26.28,0,0,0,6.2,1.46l-2,6.52c-1.56.12-4-.53-7.36-1.59l-.46-.15c-3.48-1.1-5.4-.74-7,4.38Zm-5.47-1.73,1.82-5.77c1.19-3.76.22-5.67-2.44-6.51s-4.57.42-5.63,3.78l-1.88,5.93Z"/><path class="cls-19" d="M48,240.41l5.41-12.06c4-8.86,12.41-12,21.41-8S87.85,233,83.67,242.28l-5.29,11.79ZM76,245.11l2.21-4.94c2.62-5.83-.56-10.36-6.48-13-5-2.23-10.62-1.87-13.29,4.09l-2.24,5Z"/><path class="cls-19" d="M103.61,182.54c-4.72-3.18-10-6.83-13-9.06l-.13.19c4.77,5.11,12.11,14.09,19,22.58L106,201.34c-8.92-3.09-21.34-7.32-27.68-9.83l-.13.18c3.41,2,9.17,5.68,13.91,8.88l9.9,6.69-3.68,5.44L70.7,194l6-8.89c8.68,2.72,19.37,6.42,24,8.37l0,0C97.6,190.35,90,180.77,84.44,173.69l5.79-8.58,27.63,18.67L114,189.54Z"/><path class="cls-19" d="M101.85,151.26l14.87,13.18c4.79,4.24,8.4,3,10.78.34,2.74-3.09,2.78-6.51-1.76-10.52l-14.87-13.18,4.79-5.4,14.6,12.94c8.54,7.56,6.29,14.48,1.41,20s-11.56,8.48-19.9,1.1l-14.71-13Z"/><path class="cls-19" d="M142.25,142.85c2.81,2,5.58,1.44,8.44-1.15s3.05-4.81,1.41-6.62c-1.82-2-3.81-1.81-8.92,1-8.16,4.52-12,3.58-15.06.24-3.91-4.31-3.33-10.15,2.51-15.45,6.57-6,12.38-4.79,16-1.5l-5.39,4.88c-1.63-1.29-4-2.18-7.16.71-2.17,2-2.66,4.05-1.07,5.8s3.24,1.47,8.07-1.23c8.72-4.82,12.72-3.57,15.88-.09,4.09,4.52,3.48,10.71-3.05,16.63-6.28,5.68-12.38,5.59-17,1.62Z"/><path class="cls-19" d="M152.61,103.23l20.48,26.33L167.4,134l-20.48-26.32Z"/><path class="cls-19" d="M196.88,100.93c2.27,5.94.82,12.3-6.18,16.86-8.86,5.78-17.14,2.24-22.32-5.71-5-7.65-5.15-17.34,3.87-23.22,7.44-4.85,13.89-2.83,17.62,1.39l-6,3.94c-2-1.77-4.89-2.94-8.69-.46-5,3.25-4,9-.66,14.07,3.08,4.72,8,8.61,13.39,5.09,3.94-2.57,3.46-6,2.93-8Z"/><path class="cls-19" d="M203.37,71.4l12.56-5.71c6.45-2.93,12.48-1.3,15.1,4.48,3,6.59-.62,11.89-6.61,14.61l-5.83,2.65,5.15,11.34-6.57,3Zm12.84,10.81,5-2.28c3-1.38,4.65-3.53,3.25-6.63s-4.23-3.27-7-2l-5.15,2.34Z"/><path class="cls-19" d="M247.32,74.67l4.21,12.67-6.69,2.22L234.34,57.9l13.91-4.61c6.9-2.29,11.88.28,13.5,5.17,1.41,4.24-.14,7.31-2.12,9,1.76.06,4.67.91,6.55,6.57l.52,1.57a26.35,26.35,0,0,0,2.45,5.88l-6.48,2.15c-1-1.19-1.91-3.53-3-6.89l-.16-.46c-1.14-3.46-2.56-4.81-7.66-3.12Zm-1.8-5.45,5.74-1.9c3.74-1.25,4.72-3.15,3.84-5.8s-3-3.46-6.36-2.35l-5.91,2Z"/><path class="cls-19" d="M279.8,71.08l-1,8.07L271.9,80.6l4.24-35L285,43.78,303.41,74,296,75.56l-4.26-7Zm9.2-8c-3.76-6.4-6.16-10.49-7.57-13.26h0c-.13,3.38-.69,8.85-1.32,15.12Z"/><path class="cls-19" d="M310.31,73.47,309,61.76a1.88,1.88,0,0,0-.39-1L294.83,41.67l8.1-.92c3.13,4.7,7.22,11,9.28,14.38,1.05-3.63,3.88-11,5.83-16.11l7.5-.86-9.26,21.58a1.64,1.64,0,0,0-.15,1.09l1.35,11.82Z"/><path class="cls-19" d="M353.86,56.64l-15.95.27.14,8.47,17.59-.3L354.89,71l-23.74.4-.55-33.35,23.64-.4.1,5.91-16.65.28.12,7.15,15.95-.27Z"/><path class="cls-19" d="M368.2,58.52l-1.14,13.31-7-.61L362.9,38l14.6,1.26c7.25.62,10.8,5,10.36,10.08-.38,4.46-3,6.66-5.51,7.45,1.6.75,3.93,2.67,3.42,8.62L385.63,67a26.92,26.92,0,0,0-.07,6.38l-6.81-.59c-.46-1.49-.35-4-.05-7.52l0-.48c.31-3.64-.46-5.44-5.81-5.9Zm.5-5.71,6,.51c3.93.34,5.58-1,5.82-3.8s-1.4-4.37-4.92-4.67l-6.19-.54Z"/><path class="cls-19" d="M436.06,67.15c-2.23,9-9.55,15.44-20.07,12.84-10.16-2.51-13.66-11.21-11.37-20.48s10-15.21,20.05-12.73C434.14,49.12,438.51,57.24,436.06,67.15Zm-24.17-6c-1.56,6.32,0,11.79,5.77,13.21,6.23,1.54,9.72-3.13,11.15-8.9,1.51-6.13.19-11.56-5.85-13C417.11,51,413.45,54.85,411.89,61.15Z"/><path class="cls-19" d="M455.33,56.47,448.24,75c-2.28,6,.12,8.93,3.48,10.21,3.85,1.47,7.07.3,9.23-5.35L468,61.32l6.74,2.58-7,18.23c-4.07,10.65-11.34,11-18.21,8.36-7-2.68-12-7.83-8-18.24l7-18.36Z"/><path class="cls-19" d="M488,76.91l-9-4.64L481.71,67l24.4,12.57-2.7,5.25-9-4.62-12.56,24.4-6.42-3.3Z"/><path class="cls-19" d="M507.16,103.81,499.87,115l-5.9-3.85L512.18,83.2l12.28,8c6.09,4,7.18,9.47,4.37,13.78-2.44,3.75-5.81,4.45-8.37,4,1,1.41,2.2,4.21-1.06,9.21l-.9,1.38a26.88,26.88,0,0,0-3.07,5.59l-5.72-3.73c.3-1.54,1.57-3.69,3.5-6.65l.27-.41c2-3.06,2.16-5-2.34-7.94ZM510.3,99l5.06,3.3c3.31,2.16,5.41,1.73,6.93-.61s.82-4.51-2.13-6.43L515,91.86Z"/><path class="cls-19" d="M546.92,132l-12.38-10.06-5.34,6.57,13.65,11.1-4.39,4-18.42-15,21-25.88,18.35,14.91-3.72,4.59-12.92-10.5-4.51,5.54,12.38,10.06Z"/><path class="cls-19" d="M553,146.92l-7.31,3.56-5-5,31.69-15.37,6.36,6.44-15.43,31.84L558,163l3.56-7.36Zm11.67,3.41c3.35-6.62,5.49-10.86,7.06-13.54l0,0c-2.92,1.72-7.81,4.21-13.42,7.09Z"/><path class="cls-19" d="M590.76,186.5c-5.72,2.8-12.18,1.92-17.35-4.63-6.55-8.31-3.77-16.87,3.68-22.74,7.18-5.66,16.81-6.68,23.47,1.77,5.5,7,4.07,13.58.2,17.67l-4.47-5.66c1.59-2.14,2.49-5.13-.31-8.69-3.68-4.67-9.31-3.16-14.07.59-4.43,3.5-7.86,8.74-3.87,13.8a6.65,6.65,0,0,0,8.23,2.2Z"/><path class="cls-19" d="M613.71,179.26l3.78,6.14-11.09,6.82,7,11.43,11.08-6.81,3.78,6.14-28.42,17.46-3.77-6.14,12.29-7.56-7-11.43-12.3,7.56-3.77-6.15Z"/><path class="cls-19" d="M638.93,224l5.62,13.45c3.11,7.43.41,11.87-3.59,13.54a7.61,7.61,0,0,1-8.31-1.13,7.94,7.94,0,0,1-5,7.73c-5.26,2.2-10.94-.29-13.67-6.83l-5.81-13.9ZM616,241.25l2.51,6c1.5,3.6,3.68,4.6,6.48,3.44,2.47-1,3.39-3.3,1.86-7l-2.49-6Zm16.07.51c1.32,3.16,3.28,3.88,5.44,3s2.71-3.13,1.63-5.7l-2.65-6.34-7,2.92Z"/><path class="cls-19" d="M629.26,270.32l-8.12-.34-2-6.81,35.19,1.55,2.53,8.7-28.72,20.67L626,286.81l6.63-4.79Zm8.65,8.56c6.09-4.24,10-6.95,12.64-8.56v0c-3.39.12-8.88,0-15.18-.15Z"/><path class="cls-19" d="M628.79,297.39l32.9-5.49,1.47,8.82c-6.7,5.34-18.75,15.16-22.09,17.27l0,.09c3.37-.95,9.08-1.89,14.48-2.79l9.75-1.63,1.08,6.44-32.9,5.5-1.4-8.37c5.84-4.6,19.74-15.57,23.27-17.84l0-.09c-2.83.72-9.58,1.93-15.47,2.91l-10,1.67Z"/><path class="cls-19" d="M667.51,331.12l.58,13.21c.43,9.7-5.68,16.32-15.53,16.76s-17.35-5.41-17.8-15.6l-.56-12.91Zm-27.18,8.41.24,5.4c.28,6.39,5.15,9,11.64,8.72,5.45-.24,10.33-3.1,10-9.63l-.24-5.44Z"/><path class="cls-19" d="M183,588.86l12.54,8.32c6.44,4.27,8.41,10.8,4.59,16.56-4.37,6.59-11.36,6.3-17.34,2.34l-5.83-3.87-7.5,11.32-6.57-4.35ZM180.38,607l5,3.32c3,2,6,2.27,8-.83s.59-5.8-2.19-7.64l-5.14-3.41Z"/><path class="cls-19" d="M203.58,631.93c-.91,3.63.7,6.25,4.46,8.15s6.1,1.23,7.3-1.14c1.34-2.64.36-4.58-4.54-8.69-7.78-6.55-8.33-10.86-6.11-15.24,2.87-5.66,9.05-7.35,16.73-3.46,8.61,4.37,9.69,10.74,7.75,15.72l-7.07-3.58c.68-2.17.67-4.9-3.51-7-2.85-1.44-5.16-1.14-6.33,1.16s-.23,3.87,4.4,7.75c8.3,7,8.59,11.57,6.27,16.14-3,5.92-9.54,7.72-18.12,3.37-8.24-4.18-10.52-10.43-8.29-16.74Z"/><path class="cls-19" d="M236.22,649.45l-5.53,6.94-7.27-2.64,24-30,9.29,3.36-.28,38.6-7.78-2.82.06-8.92Zm13.1-2.11c.19-8.1.31-13.27.6-16.64l0,0c-2.06,3.07-5.72,7.81-9.9,13.27Z"/><path class="cls-19" d="M271.94,632.06l7.65,1.81L272.7,663l17.64,4.17L288,673.23l-24.41-5.77Z"/><path class="cls-19" d="M328,664.43c.62-6.17,1.42-13.08,2-17.16l-.25,0c-2.44,7.21-7.26,18.9-11.87,29.88l-6.66-.67c-1.65-10.16-4-24.27-4.88-31.66l-.24,0c-.12,4.27-.71,11.73-1.34,17.94l-1.3,13-7.13-.71,3.63-36.19L311.59,640c1.87,9.74,3.84,21.91,4.39,27.42H316c1.36-4.67,6.61-17,10.56-25.92l11.22,1.13-3.63,36.19-7.55-.76Z"/><path class="cls-19" d="M350.08,667.86c.95,3.62,3.62,5.13,7.83,5s5.94-1.85,5.85-4.51c-.1-3-1.9-4.19-8.16-5.43-10-2-12.54-5.51-12.7-10.42-.21-6.34,4.39-10.8,13-11.08,9.65-.32,13.67,4.74,14.36,10l-7.92.26c-.45-2.22-1.77-4.61-6.45-4.45-3.2.1-5.08,1.48-5,4.06s1.66,3.51,7.58,4.67c10.66,2.15,13.1,6,13.27,11.13.22,6.64-4.65,11.36-14.26,11.68-9.23.3-14.24-4.08-15.33-10.68Z"/><path class="cls-19" d="M415.63,635.52l1.14,5.49c-3.81,8.74-6.81,20.86-6.1,31l-7.61,1.57c-.72-10.28,2.89-23.52,6.3-30.41l-16,3.31-1.26-6.08Z"/><path class="cls-19" d="M435.32,665.88,427.88,641a22.9,22.9,0,0,1-5.58,3.24l-1.62-5.4a16.33,16.33,0,0,0,6.92-6.93l5.11-1.53,10,33.29Z"/><path class="cls-19" d="M445.46,643.44l-3-8.26,7.39-2.71,3,8.26Zm6.3,17.15-3-8.26,7.39-2.72,3,8.27Z"/><path class="cls-19" d="M467,655l-.2-.44c-2.53-5.49-2.12-11.1,2.42-19.21,2.95-5.31,3.78-7.05,2.51-9.81s-3.3-3.65-5.95-2.43c-3.09,1.42-3.33,3.83-2.5,6.77l-6.62,3c-2.05-5.65-.58-11.82,6.66-15.16,8.1-3.73,13.1-.18,15.28,4.54s1.16,7.72-2.77,14.47c-2.63,4.52-3.36,7-3.24,8.71l14.93-6.89,1.78,6.12Z"/><path class="cls-19" d="M482.68,619.13c-1.75-3.93-1.84-10,5.63-14.42,6.92-4.09,12.31-2,14.8,2.22a7.27,7.27,0,0,1-.11,8.26l.08.13a8.3,8.3,0,0,1,9.12,4.33c2.55,4.33,2.95,11-5.64,16.07-8,4.73-13.58,1.51-16.23-2.27l6.33-3.74c1.61,1.81,4.06,2.74,7.14.92s3.35-4.59,1.8-7.22-4-3.6-7.53-1.54l-2.69,1.59-3-5,2.37-1.4c3-1.76,3.6-3.46,2.12-6-1.21-2.05-3.25-2.71-5.82-1.19-3,1.79-2.76,3.91-2.22,5.58Z"/><path class="cls-20" d="M43.78,380.81c8.45,85.1,37.32,158.05,103.73,208.68"/><path class="cls-20" d="M649.51,380.81c-8.45,85.1-37.32,158.05-103.73,208.68"/></g></g></svg>